<?xml version="1.0" encoding="UTF-8"?>
<svg version="1.1" xmlns="http://www.w3.org/2000/svg" width="512" height="512">
<path d="M0 0 C0.84552264 0.84255152 1.69104528 1.68510303 2.56218982 2.55318642 C4.87852647 4.86241732 7.19267266 7.17381586 9.50583076 9.4862299 C12.01256159 11.99109127 14.52213181 14.49310551 17.03128052 16.99554443 C22.50060738 22.4513699 27.96622785 27.91089806 33.43101597 33.37126923 C36.84744963 36.78492941 40.26461536 40.19785613 43.68190765 43.61065674 C53.15801636 53.07458898 62.63318931 62.53945588 72.10490799 72.00778198 C72.70937533 72.61202975 73.31384266 73.21627753 73.93662719 73.83883584 C74.54245272 74.44444309 75.14827825 75.05005034 75.77246213 75.67400932 C76.99989752 76.90100126 78.22733446 78.12799164 79.45477295 79.35498047 C80.06361071 79.9635968 80.67244848 80.57221314 81.29973587 81.19927239 C91.17690242 91.0724863 101.06081198 100.9389204 110.94762531 110.80247331 C121.11694502 120.94806192 131.28061264 131.09928417 141.43865657 141.25616264 C147.13483064 146.95142153 152.83337995 152.64425707 158.53818512 158.33087158 C163.39192513 163.16918765 168.24046343 168.01264241 173.08237365 172.86279821 C175.55024413 175.33456555 178.02043617 177.80388448 180.49728775 180.26665497 C183.18602681 182.94268038 185.86531281 185.62783499 188.54248047 188.31542969 C189.31971757 189.08461039 190.09695467 189.85379108 190.89774442 190.64628029 C202.57131435 202.42619718 208.31792165 214.25350144 208.33197021 230.7355957 C208.11194429 244.46443198 202.69992356 254.90599095 192.89227295 264.40771484 C183.78666384 272.12088545 173.59525833 275.33715702 161.8727417 275.25537109 C161.10295486 275.25395615 160.33316803 275.2525412 159.54005432 275.25108337 C157.09492007 275.2455109 154.64987927 275.23296355 152.20477295 275.22021484 C150.54136282 275.21519628 148.87795124 275.210634 147.21453857 275.20654297 C143.14874767 275.1955505 139.08302612 275.17830495 135.01727295 275.15771484 C135.02003833 275.95763288 135.02280371 276.75755093 135.02565289 277.58170891 C135.09198864 297.07123962 135.14159044 316.56074772 135.17270947 336.05036736 C135.18815949 345.47551409 135.20921328 354.90058533 135.24359131 364.32568359 C135.27355084 372.54334157 135.2928615 380.76094486 135.29953843 388.97865593 C135.30343961 393.32739099 135.31256885 397.67596961 135.33446312 402.02465439 C135.35493195 406.12369792 135.36108589 410.22252162 135.35659599 414.3216114 C135.35741657 415.82032659 135.36332007 417.31904966 135.37488937 418.81772041 C135.46275443 430.79418131 134.1211133 440.29364737 127.01727295 450.15771484 C126.31602295 451.16833984 125.61477295 452.17896484 124.89227295 453.22021484 C116.69497732 462.50879131 105.37672762 465.54522033 93.41708755 466.42149925 C89.61626964 466.52315111 85.82760367 466.52947883 82.02557373 466.49829102 C80.58510354 466.49744213 79.14463205 466.49792498 77.7041626 466.49961853 C73.84136097 466.50046971 69.97884605 466.48298848 66.11611032 466.46189666 C62.06160389 466.44298134 58.00708892 466.44136783 53.95254517 466.43782043 C46.29601676 466.42854317 38.6396188 466.40398872 30.9831475 466.37377197 C22.25749343 466.34009243 13.53183272 466.32370808 4.80612969 466.30868566 C-13.12356283 466.27743465 -31.0531344 466.2247594 -48.98272705 466.15771484 C-48.98419361 465.43141562 -48.98566017 464.70511639 -48.98717117 463.95680809 C-49.0242325 446.27944466 -49.08323817 428.60229073 -49.16662979 410.92508507 C-49.20642904 402.37648583 -49.23881701 393.82797876 -49.25372314 385.27929688 C-49.2667351 377.82773409 -49.29368798 370.37637405 -49.33734012 362.92492545 C-49.35996537 358.97986254 -49.37563711 355.03504978 -49.3746109 351.08991623 C-49.3738649 347.37483401 -49.39179079 343.66030498 -49.42389488 339.94536591 C-49.43644456 337.93552996 -49.42932515 335.92560119 -49.42158508 333.91574097 C-49.47744288 325.22229344 -49.47744288 325.22229344 -53.98272705 318.15771484 C-59.00558641 313.62489055 -62.78809616 313.00572952 -69.35650635 312.98071289 C-70.10487259 312.97414169 -70.85323883 312.9675705 -71.62428284 312.96080017 C-74.10183822 312.94108546 -76.57933296 312.92940711 -79.0569458 312.91943359 C-79.90474924 312.91535807 -80.75255268 312.91128254 -81.62604713 312.90708351 C-86.1156248 312.88622803 -90.60517198 312.87192549 -95.0947876 312.86254883 C-99.72050997 312.85150069 -104.34574915 312.81711797 -108.97130108 312.77737713 C-112.5376522 312.75116383 -116.10388916 312.7428527 -119.67032814 312.73926735 C-121.37468533 312.73441157 -123.07903776 312.72282644 -124.7833004 312.70422935 C-137.00668775 312.36753267 -137.00668775 312.36753267 -147.98272705 317.15771484 C-152.19009782 321.58084822 -153.10366643 324.88011472 -153.14094543 330.87138367 C-153.15562866 332.65716324 -153.15562866 332.65716324 -153.17060852 334.47901917 C-153.17636398 335.78668747 -153.18211945 337.09435577 -153.18804932 338.44165039 C-153.19762852 339.83124075 -153.20763863 341.22082821 -153.2180481 342.6104126 C-153.24509862 346.38488934 -153.26610738 350.15937859 -153.28605008 353.93389869 C-153.30790871 357.87773404 -153.33529801 361.82153083 -153.36210632 365.76533508 C-153.41203487 373.23444159 -153.4569731 380.70356949 -153.50012869 388.17271787 C-153.54949968 396.67567405 -153.60441832 405.17859156 -153.65980828 413.68151033 C-153.77363081 431.17354275 -153.88046927 448.66561107 -153.98272705 466.15771484 C-159.44127508 466.23270018 -164.89951357 466.28670557 -170.35845947 466.32250977 C-172.20974968 466.33745897 -174.06100535 466.35782581 -175.91217041 466.3840332 C-191.34438184 466.59680497 -205.4779383 466.51993855 -217.98272705 456.15771484 C-223.85633212 450.26433333 -227.42515214 444.03273365 -229.98272705 436.15771484 C-230.47772705 434.67271484 -230.47772705 434.67271484 -230.98272705 433.15771484 C-231.07460327 431.03964274 -231.10466282 428.91872345 -231.10298157 426.79866028 C-231.10383599 426.15089573 -231.10469042 425.50313118 -231.10557073 424.83573741 C-231.10722006 422.6615411 -231.10171311 420.48742165 -231.09625244 418.31323242 C-231.09597043 416.75615948 -231.09612858 415.19908641 -231.09669495 413.64201355 C-231.09698236 409.41090957 -231.09109465 405.17983383 -231.08412099 400.94873643 C-231.07787815 396.52846306 -231.07728291 392.10818908 -231.07609558 387.68791199 C-231.07298502 379.31567097 -231.06477531 370.94344298 -231.05474609 362.5712077 C-231.04357644 353.04048691 -231.03807235 343.5097655 -231.03305066 333.97903979 C-231.02259249 314.3719242 -231.00499834 294.76482034 -230.98272705 275.15771484 C-231.99061279 275.17342529 -232.99849854 275.18913574 -234.03692627 275.20532227 C-237.82020902 275.26012643 -241.6034576 275.29424607 -245.38702393 275.32250977 C-247.01631597 275.33748251 -248.6455685 275.35786805 -250.27471924 275.3840332 C-267.4122168 275.65213516 -279.82767947 272.67036816 -292.68585205 260.61083984 C-302.68213935 249.934533 -304.74886005 237.84519527 -304.33428955 223.73583984 C-304.00990464 218.02759894 -302.63024242 213.22631335 -299.98272705 208.15771484 C-299.63210205 207.46935547 -299.28147705 206.78099609 -298.92022705 206.07177734 C-293.51150431 196.56895197 -284.81428637 188.84018768 -277.14044189 181.17498779 C-276.29789038 180.32946515 -275.45533886 179.48394251 -274.58725548 178.61279798 C-272.27802457 176.29646133 -269.96662604 173.98231514 -267.654212 171.66915703 C-265.14935062 169.1624262 -262.64733638 166.65285598 -260.14489746 164.14370728 C-254.68907199 158.67438041 -249.22954383 153.20875994 -243.76917267 147.74397182 C-240.35551248 144.32753817 -236.94258577 140.91037243 -233.52978516 137.49308014 C-224.06585291 128.01697143 -214.60098601 118.54179848 -205.13265991 109.0700798 C-204.52841214 108.46561247 -203.92416437 107.86114513 -203.30160606 107.2383606 C-202.69599881 106.63253507 -202.09039156 106.02670954 -201.46643257 105.40252566 C-200.23944064 104.17509028 -199.01245026 102.94765333 -197.78546143 101.72021484 C-197.17684509 101.11137708 -196.56822875 100.50253931 -195.9411695 99.87525192 C-186.06795559 89.99808538 -176.20152149 80.11417581 -166.33796859 70.22736248 C-156.19237997 60.05804277 -146.04115773 49.89437516 -135.88427925 39.73633122 C-130.18902036 34.04015715 -124.49618482 28.34160784 -118.80957031 22.63680267 C-113.97125425 17.78306266 -109.12779948 12.93452437 -104.27764368 8.09261414 C-101.80587635 5.62474366 -99.33655742 3.15455162 -96.87378693 0.67770004 C-94.19776152 -2.01103902 -91.5126069 -4.69032502 -88.82501221 -7.36749268 C-88.05583151 -8.14472978 -87.28665081 -8.92196688 -86.49416161 -9.72275662 C-56.09673039 -39.84576533 -26.29652367 -26.32618012 0 0 Z " fill="#000000" transform="translate(303.98272705078125,36.84228515625)"/>
</svg>
