<?xml version="1.0" encoding="UTF-8"?>
<svg version="1.1" xmlns="http://www.w3.org/2000/svg" width="512" height="512">
<path d="M0 0 C21.74464854 -0.67703118 42.77776882 7.76953054 58.8828125 22.12109375 C59.64207031 22.78625 60.40132813 23.45140625 61.18359375 24.13671875 C76.25320192 38.19127559 85.96656821 59.56535222 86.8828125 80.12109375 C86.92277344 80.78625 86.96273438 81.45140625 87.00390625 82.13671875 C87.75002068 105.83682431 78.45321061 127.22026445 62.69140625 144.52734375 C57.87826835 149.54974852 52.83727048 153.53152689 46.8828125 157.12109375 C48.37699531 161.10064995 50.2574529 164.7486952 52.2578125 168.49609375 C62.1132834 187.58242908 63.77762945 210.55571732 57.8828125 231.12109375 C53.37258203 245.14342166 46.22004981 256.61327497 35.8828125 267.12109375 C35.12226563 267.89453125 34.36171875 268.66796875 33.578125 269.46484375 C16.35707544 285.95188136 -5.62107441 291.81975185 -28.94921875 291.37109375 C-53.51660167 290.47529127 -73.07289781 278.04889456 -89.4296875 260.68359375 C-93.79612059 255.64259688 -96.89168647 249.9269956 -100.1171875 244.12109375 C-100.7771875 243.13109375 -101.4371875 242.14109375 -102.1171875 241.12109375 C-146.3371875 285.34109375 -190.5571875 329.56109375 -236.1171875 375.12109375 C-234.51645723 378.32255428 -233.74696923 379.73711556 -231.3515625 382.06616211 C-230.52060059 382.88237282 -230.52060059 382.88237282 -229.67285156 383.71507263 C-229.07698242 384.29120804 -228.48111328 384.86734344 -227.8671875 385.4609375 C-226.60665315 386.70105227 -225.3462402 387.94129044 -224.0859375 389.18164062 C-222.10015402 391.12392365 -220.11197022 393.06367001 -218.12109375 395.00073242 C-216.19665293 396.87682405 -214.28156582 398.76208711 -212.3671875 400.6484375 C-211.77131836 401.22254868 -211.17544922 401.79665985 -210.56152344 402.38816833 C-206.27875732 406.61927623 -204.42836512 409.78726161 -203.6171875 415.87109375 C-203.89600119 425.0112875 -212.88691314 432.28010388 -218.9921875 438.18359375 C-219.7759375 438.95380859 -220.5596875 439.72402344 -221.3671875 440.51757812 C-223.2770986 442.39255183 -225.19368458 444.26008385 -227.1171875 446.12109375 C-231.33535591 444.49140451 -234.07026282 441.35126034 -237.1328125 438.16015625 C-238.313516 436.95414694 -239.49451507 435.74842693 -240.67578125 434.54296875 C-242.52053617 432.64875265 -244.36194799 430.75152472 -246.19775391 428.84863281 C-247.9795634 427.00591085 -249.77402201 425.17625007 -251.5703125 423.34765625 C-252.10706604 422.78398346 -252.64381958 422.22031067 -253.19683838 421.63955688 C-257.43764366 417.34437815 -262.48755335 413.30040202 -268.7265625 412.9921875 C-273.69672895 414.30728629 -276.34753315 415.50500317 -279.1171875 420.12109375 C-280.70043507 423.28758888 -280.76092986 426.69567569 -280.1171875 430.12109375 C-277.20651786 435.03636406 -273.67856935 438.75900129 -269.56640625 442.69140625 C-268.29841798 443.92926752 -267.0308519 445.16756136 -265.76367188 446.40625 C-263.77574355 448.33814209 -261.78413691 450.26583206 -259.78491211 452.18603516 C-257.84686957 454.05184221 -255.92457416 455.93274187 -254.00390625 457.81640625 C-253.39882736 458.3894046 -252.79374847 458.96240295 -252.17033386 459.55276489 C-250.51049805 461.19189453 -250.51049805 461.19189453 -248.1171875 464.12109375 C-248.57162806 467.9315511 -250.29611371 469.67444465 -252.9765625 472.34375 C-253.76289063 473.12943359 -254.54921875 473.91511719 -255.359375 474.72460938 C-256.18695313 475.53607422 -257.01453125 476.34753906 -257.8671875 477.18359375 C-258.67929687 477.99892578 -259.49140625 478.81425781 -260.328125 479.65429688 C-265.81507556 485.09209723 -269.99985097 489.01826478 -277.859375 490.30078125 C-285.10381761 489.72423391 -289.57282853 485.21557145 -294.36328125 480.265625 C-295.01925797 479.60398849 -295.67523468 478.94235199 -296.35108948 478.26066589 C-298.42859736 476.16090238 -300.49170254 474.04761767 -302.5546875 471.93359375 C-303.9671679 470.50103452 -305.38057032 469.06938377 -306.79492188 467.63867188 C-310.2464351 464.14323476 -313.68510629 460.63560832 -317.1171875 457.12109375 C-321.66712886 460.91317531 -325.94631743 464.8451392 -330.05859375 469.10546875 C-331.14734312 470.21658042 -332.23654923 471.3272447 -333.32617188 472.4375 C-335.01152554 474.16004326 -336.69354142 475.88543451 -338.36791992 477.61865234 C-340.00565464 479.31098617 -341.65591796 480.9902398 -343.30859375 482.66796875 C-343.80251114 483.18566833 -344.29642853 483.70336792 -344.80531311 484.23675537 C-348.01201291 487.46716141 -350.67926529 489.10503423 -355.1171875 490.12109375 C-364.38454672 490.12109375 -369.88490637 484.55874112 -376.21565247 478.30052185 C-376.77741684 477.73470901 -377.33918121 477.16889618 -377.91796875 476.5859375 C-378.82255074 475.68422569 -378.82255074 475.68422569 -379.7454071 474.76429749 C-381.00566015 473.50539351 -382.26343925 472.24400833 -383.51879883 470.98022461 C-385.43544708 469.05280179 -387.36262342 467.13636829 -389.29101562 465.22070312 C-390.52147557 463.98892246 -391.75131544 462.75652201 -392.98046875 461.5234375 C-393.83829704 460.6716819 -393.83829704 460.6716819 -394.7134552 459.80271912 C-399.39631105 455.06463332 -402.19475963 451.1328953 -403.296875 444.37890625 C-402.61466732 435.80681843 -396.17413525 430.62423587 -390.41731262 424.94020081 C-389.39916809 423.92031083 -388.38190349 422.8995418 -387.36544245 421.87797397 C-384.57635872 419.07996131 -381.77498228 416.29454903 -378.97141516 413.51105893 C-375.94783315 410.50476743 -372.93583659 407.48690752 -369.92240906 404.47044373 C-364.70205867 399.24799699 -359.47444063 394.03291796 -354.24180031 388.82278633 C-346.67632011 381.2898286 -339.12192289 373.7458362 -331.57017597 366.19911396 C-319.31737258 353.95506282 -307.05566511 341.71996907 -294.78833008 329.49047852 C-282.87250956 317.61137987 -270.96090176 305.72808299 -259.05493164 293.83911133 C-258.3209189 293.10614948 -257.58690616 292.37318763 -256.83065061 291.61801482 C-253.1483122 287.9408966 -249.46605643 284.26369565 -245.78384173 280.58645356 C-215.241091 250.08516268 -184.68387598 219.59839424 -154.1171875 189.12109375 C-157.16657218 186.78139584 -160.22990414 184.94221383 -163.6171875 183.12109375 C-170.73857041 179.008256 -176.33377964 173.89608326 -182.1171875 168.12109375 C-182.78621094 167.46367187 -183.45523438 166.80625 -184.14453125 166.12890625 C-199.81092626 149.57439361 -204.82994292 127.02748852 -204.421875 104.953125 C-203.53764597 82.46374617 -192.97902666 62.08916195 -176.7421875 46.74609375 C-157.37056179 30.64321483 -134.86984619 24.4045007 -110.1171875 26.12109375 C-96.15751702 27.51544696 -82.28432047 32.58686205 -71.1171875 41.12109375 C-70.58351563 40.37085938 -70.04984375 39.620625 -69.5 38.84765625 C-54.36997067 18.06349831 -34.95806406 4.86039141 -9.25390625 0.65234375 C-6.1698806 0.30700962 -3.09608795 0.17708252 0 0 Z M-19.0546875 66.99609375 C-25.33592944 74.99578868 -26.28783033 82.01304314 -25.1171875 92.12109375 C-22.93033501 99.59283976 -18.46531432 104.75523642 -12.1171875 109.12109375 C-4.9341855 112.96913054 1.83422265 113.93815411 9.65234375 111.90625 C17.94508762 108.98708797 23.25495638 103.41325875 27.7578125 96.05859375 C30.49181016 88.7459735 30.07324958 79.73273514 26.8828125 72.68359375 C23.34692845 66.61066295 17.77613825 61.00948344 11.05078125 58.5625 C-0.71948953 56.16603045 -10.78098125 58.13633331 -19.0546875 66.99609375 Z M-142.1171875 94.12109375 C-146.60619084 101.17894872 -147.89761555 107.81510954 -147.1171875 116.12109375 C-145.15924638 123.49286003 -140.45908442 130.31306322 -134.02734375 134.47265625 C-127.1334946 138.04153905 -120.18584566 139.47325103 -112.5546875 137.4375 C-103.72363285 134.19316438 -98.50450617 129.61872877 -94.0625 121.3671875 C-91.24961362 114.68367648 -91.25361461 107.87055296 -93.6796875 101.12109375 C-97.01007459 93.52547407 -101.71799444 88.20313385 -109.3203125 84.8125 C-121.83035565 79.99885296 -133.46471735 84.41153448 -142.1171875 94.12109375 Z M-45.1171875 189.12109375 C-50.35997239 196.95122702 -52.33920087 204.02119607 -50.7265625 213.390625 C-48.75889197 220.59280366 -44.19605217 226.48652458 -37.921875 230.5390625 C-30.34904661 234.40930874 -22.25055591 235.71325768 -13.9921875 233.12109375 C-5.82814697 229.54302661 -0.41016706 223.21633517 2.8828125 215.12109375 C5.0245475 208.69588876 4.42967242 201.65450452 2.05078125 195.35546875 C-1.72164145 188.13866011 -7.44029687 182.83058456 -15.1171875 180.12109375 C-26.15090808 176.91564528 -37.58854232 180.40472337 -45.1171875 189.12109375 Z " fill="#000000" transform="translate(410.1171875,14.87890625)"/>
</svg>
