<?xml version="1.0" encoding="UTF-8"?>
<svg version="1.1" xmlns="http://www.w3.org/2000/svg" width="512" height="512">
<path d="M0 0 C1.44826172 1.21429688 1.44826172 1.21429688 2.92578125 2.453125 C21.39164273 18.45208151 34.0019035 40.54464475 40.75 63.875 C40.94875732 64.54499023 41.14751465 65.21498047 41.35229492 65.90527344 C44.90022364 78.90471392 45.2941195 92.27984076 45.1953125 105.65625 C45.1915681 107.18037731 45.18872791 108.70450708 45.18673706 110.2286377 C45.17921263 114.18063366 45.15966495 118.13247534 45.1373291 122.08441162 C45.11662495 126.14088862 45.10768361 130.1973913 45.09765625 134.25390625 C45.0764047 142.16934051 45.04240984 150.0846509 45 158 C45.80679199 158.12479736 46.61358398 158.24959473 47.44482422 158.37817383 C48.5123291 158.54857178 49.57983398 158.71896973 50.6796875 158.89453125 C51.73397949 159.06057861 52.78827148 159.22662598 53.87451172 159.39770508 C67.58624942 162.04001541 79.69989112 171.21632927 87.75390625 182.4453125 C97.32176671 197.7442974 98.3107458 212.66690639 98.265625 230.21875 C98.26697602 232.08565318 98.26892017 233.95255602 98.27142334 235.81945801 C98.27435989 239.72277187 98.27012838 243.62599377 98.26074219 247.52929688 C98.2494123 252.47641178 98.25587537 257.42330803 98.26788712 262.37041473 C98.27520025 266.22629365 98.27277397 270.08212292 98.26763153 273.93800354 C98.26631766 275.75883512 98.26786118 277.57967153 98.27259064 279.40049744 C98.3063869 296.08029159 97.35347681 312.51993066 93.25 328.75 C92.85530518 330.3421936 92.85530518 330.3421936 92.45263672 331.96655273 C90.31049746 340.33161291 87.66296393 348.16213984 84 356 C83.55551514 356.96292969 83.55551514 356.96292969 83.10205078 357.9453125 C64.51097699 397.88383493 31.56071419 430.48602801 -10 446 C-60.20161604 463.90200606 -122.81086863 462.93850813 -171.29931641 440.31445312 C-187.27660198 432.53812827 -201.13096799 422.2126517 -214 410 C-214.70938721 409.33145996 -214.70938721 409.33145996 -215.43310547 408.64941406 C-231.39149249 393.51672946 -242.72680115 375.89873919 -252 356 C-252.53625 354.85402344 -253.0725 353.70804687 -253.625 352.52734375 C-256.98609804 344.76355739 -259.22561878 336.88853735 -261.25 328.6875 C-261.49637207 327.70467041 -261.74274414 326.72184082 -261.99658203 325.70922852 C-265.71840691 309.85353434 -266.31498786 293.9136356 -266.30078125 277.703125 C-266.30468355 275.81182769 -266.30902128 273.92053123 -266.31376648 272.02923584 C-266.32115613 268.09970228 -266.32098889 264.17025871 -266.31567383 260.24072266 C-266.30985957 255.2428036 -266.32689293 250.24525278 -266.3500185 245.24739456 C-266.36484418 241.35398258 -266.36561609 237.46065781 -266.36250877 233.5672226 C-266.36301659 231.72550471 -266.36815082 229.88378124 -266.37832069 228.04209137 C-266.47585436 207.93405303 -263.83303888 190.18541142 -249.17578125 175.109375 C-248.45777344 174.41328125 -247.73976563 173.7171875 -247 173 C-246.43667969 172.42765625 -245.87335938 171.8553125 -245.29296875 171.265625 C-237.04248969 163.47685158 -224.39305079 158 -213 158 C-213.00444122 157.17109253 -213.00888245 156.34218506 -213.01345825 155.48815918 C-213.05384201 147.6053031 -213.08413839 139.72248269 -213.10362434 131.8395462 C-213.1139796 127.7886558 -213.12798406 123.73785219 -213.15087891 119.68701172 C-213.17290671 115.76419749 -213.18463035 111.84146575 -213.18975449 107.91859436 C-213.19339738 106.43578292 -213.20050735 104.95297504 -213.21146011 103.47019958 C-213.30925883 89.65748049 -212.38129327 76.01116247 -208.4375 62.6875 C-208.18137939 61.81287109 -207.92525879 60.93824219 -207.66137695 60.03710938 C-197.00303443 25.33581958 -172.57036238 -1.39974182 -140.8371582 -18.23144531 C-95.73210351 -40.97937151 -37.7151091 -33.3068496 0 0 Z M-138 49 C-163.3020611 80.98014608 -156 116.3108363 -156 158 C-108.48 158 -60.96 158 -12 158 C-8.00890108 97.17547793 -8.00890108 97.17547793 -32.64453125 46.1953125 C-47.18758571 32.64108927 -66.19110627 25.51070654 -86.04296875 25.78515625 C-105.61096318 27.20687315 -124.43031159 34.44035211 -138 49 Z M-109.3359375 257.1796875 C-116.90539801 265.45989547 -120.70993191 276.05133521 -120.34765625 287.203125 C-118.88182124 298.99568531 -112.57637744 307.23268134 -103.63671875 314.5546875 C-102 316 -102 316 -101 318 C-100.8793357 320.69944333 -100.81433611 323.37750891 -100.7890625 326.078125 C-100.76098321 327.73047847 -100.73231868 329.38282209 -100.703125 331.03515625 C-100.66194475 333.63980725 -100.62505806 336.2442763 -100.59863281 338.84912109 C-100.57091472 341.36334322 -100.5250332 343.87672849 -100.4765625 346.390625 C-100.47330963 347.16271301 -100.47005676 347.93480103 -100.46670532 348.73028564 C-100.35834839 353.530267 -99.59905608 356.82112552 -97 361 C-93.40620314 364.40464965 -89.9772955 366.95028635 -84.89453125 367.03515625 C-78.63226682 366.60508449 -74.41921792 364.75290315 -70.1875 359.9375 C-67.60013244 355.71600556 -67.84980029 351.56937761 -67.82421875 346.7890625 C-67.80102174 345.13540392 -67.77690445 343.48175804 -67.75195312 341.828125 C-67.71684223 339.22549923 -67.68749145 336.62334163 -67.67407227 334.02050781 C-67.6585727 331.50528583 -67.61835647 328.99142388 -67.57421875 326.4765625 C-67.57612717 325.70245026 -67.57803558 324.92833801 -67.58000183 324.13076782 C-67.46690332 319.11941605 -66.55973724 316.53472445 -63 313 C-61.73187051 311.95007093 -60.44018463 310.92784987 -59.125 309.9375 C-52.74010991 304.5192942 -48.49178585 295.92034501 -47.796875 287.5546875 C-47.59625165 276.08571959 -50.7937736 265.78897067 -58.6640625 257.1796875 C-73.22999062 243.94398113 -94.77000938 243.94398113 -109.3359375 257.1796875 Z " fill="#000000" transform="translate(340,43)"/>
</svg>
