<?xml version="1.0" encoding="UTF-8"?>
<svg version="1.1" xmlns="http://www.w3.org/2000/svg" width="512" height="512">
<path d="M0 0 C41.10544465 -0.09157583 82.21087598 -0.16204904 123.31640228 -0.20426132 C128.17040768 -0.20926408 133.02441287 -0.21444138 137.87841797 -0.21972656 C139.32792209 -0.22130043 139.32792209 -0.22130043 140.80670913 -0.22290608 C156.44897875 -0.24030647 172.09118951 -0.27184216 187.73342423 -0.30861118 C203.78642501 -0.34603077 219.83939498 -0.36823801 235.89243758 -0.37635398 C245.79628365 -0.38183963 255.69996333 -0.39915928 265.60375817 -0.43166587 C272.39719009 -0.4528263 279.19053611 -0.45919658 285.98399858 -0.45400551 C289.90221709 -0.45144611 293.82014505 -0.45534128 297.73831177 -0.4768219 C301.33004296 -0.49636854 304.92128977 -0.49721806 308.51304384 -0.48359558 C310.41842476 -0.48112035 312.32380046 -0.49829956 314.22909772 -0.51632524 C324.55774223 -0.44470388 332.68419175 1.88320911 340.24609375 9.09375 C349.36997393 19.01012757 349.30173097 30.7114978 349.24050903 43.62309265 C349.24138298 44.9690224 349.24313743 46.31495181 349.24568737 47.66087943 C349.2501278 51.33018091 349.24220314 54.99936409 349.23213124 58.66865051 C349.22345099 62.63645583 349.22642012 66.60425511 349.22793579 70.57206726 C349.22898176 77.43689731 349.22273534 84.30168918 349.21146011 91.16650963 C349.19516892 101.09174092 349.18999341 111.01695385 349.18748413 120.94219706 C349.1831127 137.04733128 349.16981859 153.15244517 349.15087891 169.25756836 C349.13250581 184.89721577 349.11835631 200.53685764 349.10986328 216.17651367 C349.10933783 217.14141028 349.10881239 218.10630689 349.10827102 219.10044279 C349.10566084 223.94130486 349.10313345 228.78216697 349.10064721 233.62302911 C349.0799319 273.7487003 349.04472142 313.87434881 349 354 C348.41962723 354.00059709 347.83925445 354.00119418 347.24129462 354.00180936 C312.86218171 354.0376844 278.48316722 354.09429418 244.10413699 354.17792095 C239.97844194 354.1879387 235.8527465 354.19778278 231.72705078 354.20751953 C230.90568096 354.2094609 230.08431114 354.21140228 229.23805133 354.21340248 C215.92941292 354.24444412 202.62079178 354.26140916 189.31212398 354.27319422 C175.66150554 354.28559459 162.01097783 354.31307072 148.36041665 354.35461307 C139.93371355 354.37978049 131.50716085 354.39311492 123.08041963 354.39142957 C117.30597964 354.39139987 111.53169313 354.40598164 105.75731292 354.43216428 C102.4230572 354.44684775 99.08938205 354.45282015 95.7550602 354.44580269 C92.14339368 354.4392118 88.53265459 354.45696671 84.92108154 354.48101807 C83.86272213 354.47325765 82.80436271 354.46549723 81.7139318 354.45750165 C76.17350424 354.44433017 76.17350424 354.44433017 71.34818649 356.86463451 C69.58479463 359.65763545 69.50733249 361.49112785 69.51757812 364.78735352 C69.50736633 366.53551109 69.50736633 366.53551109 69.49694824 368.31898499 C69.51392761 370.20489601 69.51392761 370.20489601 69.53125 372.12890625 C69.52047528 374.11587992 69.50967787 376.10285375 69.49759674 378.08981991 C69.47857589 382.28124802 69.49496255 386.47268452 69.50506592 390.66412354 C69.51199299 394.10346317 69.51094583 397.54238151 69.4901123 400.98167419 C69.47621757 403.55721202 69.47959981 406.13292075 69.50305176 408.70838928 C69.44574032 418.70529314 67.81490831 428.02974366 60.69921875 435.50390625 C53.96205559 441.43570737 46.44397066 444.57034014 37.390625 444.30859375 C29.20657352 443.25215573 22.39826438 439.14202524 17 433 C12.55784107 426.45831321 10.87656842 421.28480778 10.86971474 413.38808441 C10.86679959 412.38872523 10.86679959 412.38872523 10.86382556 411.36917698 C10.85849247 409.12675509 10.86026958 406.88439456 10.86196899 404.64196777 C10.85955133 403.02189582 10.85668919 401.40182448 10.85341966 399.78175402 C10.84565732 395.32173557 10.84404675 390.8617325 10.84336853 386.40170813 C10.84153039 381.59440994 10.83392427 376.78712078 10.82688904 371.97982788 C10.8153566 363.64544284 10.8071157 355.31105982 10.80076981 346.97666931 C10.79044705 333.79990301 10.76988363 320.62316195 10.74765015 307.44641113 C10.74017011 302.9386216 10.7327564 298.43083197 10.72536278 293.9230423 C10.72258693 292.23310902 10.72258693 292.23310902 10.719755 290.50903568 C10.69882176 277.68017989 10.67999723 264.85132131 10.66210938 252.02246094 C10.66047119 250.84956845 10.65883301 249.67667596 10.65714519 248.46824127 C10.63087397 229.47148524 10.61222336 210.47472726 10.59551747 191.47796077 C10.57808838 171.97373931 10.54923313 152.46955595 10.5106281 132.96536493 C10.48724436 120.93622353 10.47323498 108.90714424 10.47130047 96.87797993 C10.46918885 88.62964548 10.45624077 80.38137274 10.43482114 72.133066 C10.42281016 67.37618962 10.41562878 62.61943574 10.42153358 57.86254501 C10.4268489 53.50238331 10.41828563 49.14247099 10.39897721 44.78235084 C10.39442181 43.21026839 10.39484434 41.63816138 10.40092559 40.06608409 C10.44066845 28.77904593 9.82693794 17.85241169 3.875 7.9375 C2.28036263 5.23613669 0.99450371 2.98351114 0 0 Z M124 65 C118.45159714 72.15451948 117.6981248 78.55654214 117.67773438 87.31298828 C117.66780457 88.33822098 117.65787476 89.36345367 117.64764404 90.41975403 C117.61849475 93.80330113 117.60481128 97.18666058 117.59375 100.5703125 C117.58223753 102.93195599 117.57072218 105.29359946 117.5592041 107.65524292 C117.53820958 112.60643379 117.52650822 117.55755997 117.51953125 122.50878906 C117.50857952 128.83026931 117.46055327 135.15088414 117.40358734 141.47209358 C117.36619754 146.35196365 117.35591608 151.23162832 117.3528595 156.11162949 C117.34683409 158.44069005 117.3308709 160.7697482 117.30448914 163.09866714 C116.85643638 182.12772414 116.85643638 182.12772414 126.0411377 198.22659302 C132.08910836 204.08175664 138.86055636 206.59690638 147.1875 207.25 C157.02269454 206.60506921 164.80833714 202.16237651 173.125 197.1875 C174.85299403 196.17213149 176.58099173 195.15676912 178.30926514 194.14187622 C180.07067973 193.10525263 181.82917604 192.06383983 183.58691406 191.02099609 C187.73790092 188.56306553 191.90418523 186.13212188 196.07299805 183.70458984 C198.02595204 182.56725355 199.97793752 181.42825258 201.92895508 180.28759766 C207.23935564 177.18332553 212.55981193 174.09744153 217.89453125 171.03515625 C218.47331024 170.70260834 219.05208923 170.37006042 219.64840698 170.0274353 C222.43373392 168.42723566 225.22041775 166.82951094 228.00976562 165.23632812 C246.38457269 155.2800735 246.38457269 155.2800735 257 138 C258.74332469 129.28337654 258.06608584 121.9131533 253.3125 114.3125 C248.16936526 106.61952944 240.50934448 102.33390394 232.5625 98 C230.49655309 96.85307922 228.43147532 95.70459172 226.3671875 94.5546875 C225.31112305 93.9678418 224.25505859 93.38099609 223.16699219 92.77636719 C218.13713449 89.95511799 213.16198199 87.04245532 208.1875 84.125 C206.19546516 82.95937448 204.20327557 81.7940134 202.2109375 80.62890625 C201.20385742 80.03996582 200.19677734 79.45102539 199.15917969 78.84423828 C193.55123179 75.57047952 187.93350752 72.31375981 182.3125 69.0625 C181.27440186 68.46002441 180.23630371 67.85754883 179.16674805 67.23681641 C160.06691127 56.20176239 142.04346094 45.82882275 124 65 Z M66 250 C65.93686223 253.66199049 66.01756553 255.9123638 68.52356052 258.6867075 C72.15205709 260.61095292 75.6768826 260.41673217 79.68553162 260.38768005 C80.57155235 260.39306559 81.45757308 260.39845113 82.37044293 260.40399987 C85.34532832 260.41833038 88.31977194 260.41116315 91.29467773 260.40405273 C93.42506265 260.40975363 95.55544451 260.4167168 97.68582153 260.42485046 C103.47710187 260.44282788 109.26823108 260.44160487 115.05953097 260.43590808 C119.89074967 260.43282286 124.72193905 260.43890124 129.55315357 260.44494683 C140.94862772 260.45900549 152.34402692 260.45741958 163.73950195 260.44604492 C175.50362299 260.43456192 187.2675161 260.44863951 199.03160709 260.4754414 C209.12511696 260.49757798 219.21855517 260.50424039 229.3120876 260.49836498 C235.34347906 260.49498938 241.3747244 260.49745057 247.4060955 260.51461601 C253.0770216 260.53005048 258.74760932 260.52616834 264.41852188 260.50731087 C266.50146099 260.50361531 268.58442498 260.50676145 270.66734123 260.51719666 C273.50778242 260.530342 276.34709274 260.51891635 279.18748474 260.50120544 C280.01452784 260.51081045 280.84157093 260.52041546 281.69367594 260.53031152 C285.60495658 260.48002703 287.58669347 260.24842246 291.01562595 258.18742466 C293.31886154 256.04840895 293.31886154 256.04840895 293.5625 252.5 C293.26271478 249.05284088 293.26271478 249.05284088 291.51006222 246.81341648 C287.91831711 244.2185287 284.54315129 244.44313524 280.27650452 244.4853363 C279.38640023 244.47839078 278.49629595 244.47144525 277.5792188 244.46428925 C274.590401 244.44596245 271.60237186 244.45629939 268.61352539 244.46655273 C266.47328597 244.45949713 264.33305154 244.45075364 262.19282532 244.44044495 C256.37464876 244.41790086 250.55674359 244.42090249 244.73853993 244.42976642 C239.88494557 244.43486856 235.03140255 244.42759001 230.17781347 244.42029434 C218.72958085 244.40327932 207.28148146 244.40687731 195.83325195 244.42358398 C184.0145488 244.44050805 172.19621491 244.42467023 160.37755209 244.3923611 C150.237322 244.36568845 140.09720702 244.35838291 129.95694536 244.36687618 C123.89758037 244.37181202 117.83843763 244.36955412 111.77910042 244.34908867 C106.08183976 244.33076818 100.3851114 244.33664618 94.68787956 244.36128807 C92.59526715 244.36630743 90.50261445 244.3627772 88.41003418 244.35013962 C85.55623275 244.33426652 82.70419643 244.34910576 79.85047913 244.37181091 C79.01954508 244.35997518 78.18861104 244.34813946 77.33249718 244.33594507 C71.92224337 244.42358247 69.34439286 245.39285751 66 250 Z M66 298 C65.93686223 301.66199049 66.01756553 303.9123638 68.52356052 306.6867075 C72.15205709 308.61095292 75.6768826 308.41673217 79.68553162 308.38768005 C80.57155235 308.39306559 81.45757308 308.39845113 82.37044293 308.40399987 C85.34532832 308.41833038 88.31977194 308.41116315 91.29467773 308.40405273 C93.42506265 308.40975363 95.55544451 308.4167168 97.68582153 308.42485046 C103.47710187 308.44282788 109.26823108 308.44160487 115.05953097 308.43590808 C119.89074967 308.43282286 124.72193905 308.43890124 129.55315357 308.44494683 C140.94862772 308.45900549 152.34402692 308.45741958 163.73950195 308.44604492 C175.50362299 308.43456192 187.2675161 308.44863951 199.03160709 308.4754414 C209.12511696 308.49757798 219.21855517 308.50424039 229.3120876 308.49836498 C235.34347906 308.49498938 241.3747244 308.49745057 247.4060955 308.51461601 C253.0770216 308.53005048 258.74760932 308.52616834 264.41852188 308.50731087 C266.50146099 308.50361531 268.58442498 308.50676145 270.66734123 308.51719666 C273.50778242 308.530342 276.34709274 308.51891635 279.18748474 308.50120544 C280.01452784 308.51081045 280.84157093 308.52041546 281.69367594 308.53031152 C285.66467055 308.47925933 287.55650016 308.28350315 290.9882822 306.08976841 C293.54628049 303.46576287 293.54628049 303.46576287 294 300 C292.35923508 296.55439366 291.21487558 295.14325038 288 293 C285.11325425 292.79949141 282.32234496 292.71746519 279.4347229 292.72584534 C278.54955659 292.72060866 277.66439029 292.71537198 276.75240076 292.70997661 C273.77450453 292.69492695 270.79677937 292.69427037 267.81884766 292.69360352 C265.68861092 292.6859854 263.55837695 292.6775585 261.42814636 292.66838074 C255.6327133 292.64639524 249.83733302 292.63763145 244.04186296 292.63255429 C240.42342403 292.62891566 236.80499903 292.62267821 233.1865654 292.6155529 C220.56968323 292.59104485 207.95284226 292.57800346 195.3359375 292.57446289 C183.56442546 292.57082602 171.7931739 292.54092311 160.02174151 292.49905831 C149.92401278 292.46440145 139.82637057 292.44891525 129.72858274 292.44821686 C123.69376958 292.4474225 117.65922162 292.43861115 111.62446976 292.41021919 C105.94941896 292.38411743 100.27485472 292.38178935 94.5997715 292.39787483 C92.51520925 292.39969558 90.43061953 292.39294253 88.34611702 292.37705612 C85.5032448 292.3567085 82.66209314 292.36708062 79.81924438 292.38526917 C78.99151917 292.3720692 78.16379396 292.35886923 77.31098616 292.34526926 C71.90722563 292.42440614 69.34103499 293.40064531 66 298 Z " fill="#000000" transform="translate(97,34)"/>
<path d="M0 0 C99 0 198 0 300 0 C300 56.46990291 300 56.46990291 290.98828125 66.1640625 C282.57630656 74.23838376 274.44550921 75.45232675 263.06004333 75.36076355 C261.29666464 75.36460846 261.29666464 75.36460846 259.49766213 75.36853105 C256.25701007 75.37259926 253.01672329 75.36329583 249.77611434 75.34819686 C246.27317289 75.33518609 242.77024705 75.33962951 239.26728821 75.34190369 C233.20561677 75.34347325 227.14404254 75.33409732 221.08239555 75.31719017 C212.31839435 75.29276158 203.55443994 75.28499096 194.79040838 75.2812262 C180.56979967 75.27466776 166.34924273 75.2547231 152.12866211 75.22631836 C138.31844338 75.19876205 124.50823873 75.17753617 110.69799805 75.16479492 C109.42012371 75.16361267 109.42012371 75.16361267 108.11643373 75.16240653 C103.84242515 75.15849128 99.56841647 75.15470019 95.29440773 75.15097082 C59.86290159 75.11989383 24.43145558 75.0670746 -11 75 C-9.86115937 72.02889134 -8.67815555 69.44974981 -7.0625 66.6875 C4.57969957 46.74806118 -0.44012175 22.00608766 0 0 Z " fill="#000000" transform="translate(181,403)"/>
<path d="M0 0 C2.72385154 1.37688915 5.35261951 2.85812315 7.98388672 4.40454102 C8.95165039 4.95327881 9.91941406 5.5020166 10.91650391 6.06738281 C13.78468237 7.7010325 16.63618864 9.36050209 19.48388672 11.02954102 C20.22703125 11.46121582 20.97017578 11.89289063 21.73583984 12.33764648 C25.11003063 14.29786764 28.4709968 16.27896178 31.82373047 18.27563477 C36.49634609 21.05061531 41.20727632 23.75739424 45.91967773 26.46411133 C50.37836639 29.02630188 54.83034309 31.59999021 59.28076172 34.17651367 C61.35996718 35.37934671 63.4406153 36.57969069 65.52294922 37.77709961 C68.28771641 39.3704737 71.04315003 40.97884654 73.79638672 42.59204102 C75.01322144 43.28789307 75.01322144 43.28789307 76.25463867 43.99780273 C81.54178387 47.12400637 86.16880168 50.29292919 88.29638672 56.33813477 C88.7662681 61.67324632 88.28145529 65.27367445 85.48388672 70.02954102 C82.25124859 72.86099337 78.87961927 75.08652453 75.15185547 77.20922852 C74.11867188 77.8009082 73.08548828 78.39258789 72.02099609 79.00219727 C70.915625 79.6299707 69.81025391 80.25774414 68.67138672 80.90454102 C66.90905576 81.91194122 65.1476414 82.9209316 63.38626099 83.92999268 C62.18379601 84.61874344 60.98105532 85.30701308 59.77804565 85.99481201 C53.99242791 89.30404533 48.2362325 92.66284308 42.48388672 96.02954102 C32.65994833 101.77265259 22.80952219 107.46866509 12.94677734 113.14477539 C11.91359375 113.73967773 10.88041016 114.33458008 9.81591797 114.94750977 C8.90559814 115.47111084 7.99527832 115.99471191 7.05737305 116.53417969 C5.28830336 117.56212313 3.53262861 118.61335963 1.78881836 119.68359375 C-1.85429347 121.81096114 -5.34040357 122.14414025 -9.51611328 122.02954102 C-14.76439034 120.4808691 -17.48760808 118.57229882 -20.51611328 114.02954102 C-21.66536394 111.7310397 -21.64653119 110.43073742 -21.65655518 107.87443542 C-21.66226532 107.00383987 -21.66797546 106.13324432 -21.67385864 105.23626709 C-21.6749765 104.27883606 -21.67609436 103.32140503 -21.67724609 102.33496094 C-21.682211 101.32832901 -21.6871759 100.32169708 -21.69229126 99.28456116 C-21.70693717 95.94303716 -21.71371911 92.60156064 -21.71923828 89.26000977 C-21.72498795 86.94314065 -21.7307457 84.62627155 -21.73651123 82.30940247 C-21.74702829 77.4461749 -21.75286627 72.5829639 -21.75634766 67.71972656 C-21.76183234 61.48516278 -21.78585704 55.25081741 -21.81431961 49.01632214 C-21.83293514 44.22853454 -21.83815103 39.44079964 -21.83968353 34.6529789 C-21.84271328 32.35445271 -21.85075261 30.05592752 -21.86386871 27.75743675 C-21.88090542 24.54222338 -21.87905451 21.32754477 -21.87255859 18.11230469 C-21.88177338 17.16094635 -21.89098816 16.20958801 -21.90048218 15.22940063 C-21.86961492 10.35720257 -21.76292509 6.93875052 -18.51611328 3.02954102 C-12.66500708 -1.30027758 -6.99456474 -2.6977872 0 0 Z " fill="#000000" transform="translate(251.51611328125,103.970458984375)"/>
<path d="M0 0 C7.79674467 5.20274266 11.69843744 12.87993359 13.87890625 21.81640625 C14.04943713 24.5667008 14.13326835 27.20912835 14.10595703 29.95483398 C14.10624908 30.73614182 14.10654114 31.51744965 14.10684204 32.32243347 C14.10545873 34.88173887 14.0899451 37.44074603 14.07421875 40 C14.07048506 41.78361349 14.06763977 43.56722905 14.06564331 45.35084534 C14.05803488 50.02796161 14.03841054 54.70495217 14.01623535 59.38201904 C13.99210421 65.00302279 13.98298265 70.62406875 13.97132874 76.24510956 C13.95198439 84.76896235 13.91364241 93.29253972 13.87890625 101.81640625 C-6.58109375 101.81640625 -27.04109375 101.81640625 -48.12109375 101.81640625 C-48.20131137 83.29059287 -48.20131137 83.29059287 -48.21875 75.33789062 C-48.23066306 69.93086781 -48.24469142 64.52391333 -48.27197266 59.11694336 C-48.29384988 54.75325081 -48.30569347 50.38963164 -48.31084824 46.02588844 C-48.31451747 44.36868957 -48.32168184 42.71149429 -48.33255386 41.05432701 C-48.49660476 14.99056012 -48.49660476 14.99056012 -38.5234375 4.06640625 C-27.83053858 -6.04508209 -12.62359227 -7.04410398 0 0 Z " fill="#000000" transform="translate(79.12109375,38.18359375)"/>
</svg>
