<?xml version="1.0" encoding="UTF-8"?>
<svg version="1.1" xmlns="http://www.w3.org/2000/svg" width="512" height="512">
<path d="M0 0 C15.9404342 13.79718254 29.56514048 33.93141767 32.671875 55.12890625 C32.9478777 62.42457764 31.53897663 68.0031387 26.55078125 73.4140625 C21.11629291 78.42680563 15.81021996 80.14477548 8.45703125 79.8984375 C1.00991568 79.13723318 -3.32461891 76.04121925 -8.09375 70.31640625 C-10.50830347 66.64043808 -11.63330348 62.90670581 -12.86328125 58.7109375 C-17.62844526 43.78391772 -29.56709399 31.88752338 -42.87890625 24.1171875 C-58.1598875 16.60790741 -76.348363 13.65476064 -92.90625 18.5625 C-110.81775176 25.29722466 -123.83069656 35.85280645 -132.2734375 53.3515625 C-137.54327353 65.5799113 -137.9536861 78.06742502 -138.15234375 91.234375 C-138.1835154 92.97773636 -138.1835154 92.97773636 -138.21531677 94.75631714 C-138.2801972 98.43384439 -138.33940853 102.11143714 -138.3984375 105.7890625 C-138.44168134 108.29688151 -138.48529741 110.80469413 -138.52929688 113.3125 C-138.63581466 119.42962021 -138.73769007 125.54680416 -138.8359375 131.6640625 C-138.15070039 131.66129712 -137.46546328 131.65853174 -136.7594614 131.65568256 C-120.01304412 131.58915562 -103.2666692 131.53965288 -86.52015018 131.50862598 C-78.42134387 131.49321917 -70.32262628 131.47224945 -62.22387695 131.43774414 C-55.15722524 131.40765075 -48.09063784 131.38844268 -41.02392381 131.38179702 C-37.28919942 131.37791816 -33.55465888 131.36893496 -29.81999397 131.34687233 C4.51398591 131.15201275 33.26259767 136.00624675 58.8515625 160.8515625 C75.2188226 177.31552724 85.26425964 200.29841729 85.34106445 223.53662109 C85.34763565 224.40912506 85.35420685 225.28162903 85.36097717 226.18057251 C85.38062549 229.05788273 85.39235802 231.93514079 85.40234375 234.8125 C85.40641928 235.8020229 85.4104948 236.79154579 85.41469383 237.81105423 C85.43552525 243.05551186 85.44983587 248.2999436 85.45922852 253.54443359 C85.47024657 258.92144516 85.50460159 264.29803763 85.54440022 269.67490196 C85.57074349 273.84291267 85.57893627 278.01082651 85.58250999 282.17891312 C85.58733558 284.1585534 85.59883212 286.13819057 85.61754799 288.11774826 C85.72546912 300.29580867 84.84081547 310.99823044 81.1640625 322.6640625 C80.78151306 323.87795906 80.78151306 323.87795906 80.39123535 325.11637878 C72.06119842 349.52334983 53.87711857 368.12727211 31.1640625 379.6640625 C19.34403415 385.32352745 6.89026462 388.76826037 -6.2713623 388.80450439 C-7.52143066 388.81021454 -8.77149902 388.81592468 -10.05944824 388.82180786 C-11.42700185 388.82305294 -12.79455558 388.82417809 -14.16210938 388.82519531 C-15.6166191 388.82982983 -17.07112763 388.83485533 -18.52563477 388.84024048 C-22.4641179 388.85330932 -26.40258402 388.85979913 -30.34108543 388.86425114 C-32.80849303 388.86719204 -35.27589609 388.87129881 -37.74330139 388.87575531 C-45.48271012 388.88941846 -53.22210835 388.89908974 -60.9615283 388.9029572 C-69.85867483 388.90742901 -78.75566705 388.92494102 -87.6527667 388.9539578 C-94.55330063 388.97567186 -101.45379147 388.98566671 -108.35435915 388.98699832 C-112.46448499 388.98803982 -116.57446556 388.99380594 -120.68455505 389.01181793 C-124.55883268 389.02846683 -128.43285847 389.03037396 -132.30715942 389.02167892 C-133.716697 389.02091733 -135.12624907 389.02513295 -136.53575134 389.03513718 C-160.06570633 389.19213629 -182.7824156 382.12461896 -200.8359375 366.6640625 C-202.05216797 365.66439453 -202.05216797 365.66439453 -203.29296875 364.64453125 C-220.55225159 349.93039611 -233.15013967 327.20493144 -235.02691269 304.33709526 C-235.10594285 302.00718048 -235.12911398 299.68450843 -235.12646484 297.35327148 C-235.13318207 296.4817897 -235.13989929 295.61030792 -235.14682007 294.7124176 C-235.16565037 291.86160404 -235.16971718 289.01102795 -235.171875 286.16015625 C-235.1783152 284.15251067 -235.18504443 282.14486599 -235.19204712 280.13722229 C-235.20398397 275.93708119 -235.20773184 271.73702209 -235.20654297 267.53686523 C-235.20634043 262.20039107 -235.233592 256.86445328 -235.26808739 251.52810574 C-235.29052056 247.3814918 -235.29437546 243.23500339 -235.29332352 239.08833504 C-235.29565681 237.12348656 -235.30434927 235.15863338 -235.31998825 233.19384575 C-235.52263122 205.09711606 -227.45143142 181.0216122 -207.6953125 160.48828125 C-200.67504303 153.42730763 -192.77690888 147.12579969 -183.8359375 142.6640625 C-183.1759375 142.6640625 -182.5159375 142.6640625 -181.8359375 142.6640625 C-181.84259933 141.7474585 -181.84926117 140.83085449 -181.85612488 139.88647461 C-181.91664216 131.17952964 -181.96211606 122.47265696 -181.99137402 113.76554871 C-182.00692227 109.29087228 -182.02795806 104.81637198 -182.06225586 100.34179688 C-182.09524157 96.01049103 -182.11287162 91.67935283 -182.12056923 87.34793091 C-182.12604335 85.708805 -182.13672893 84.06968656 -182.15312767 82.43063354 C-182.28985587 68.17661804 -180.87370394 54.53628197 -175.7109375 41.1015625 C-175.4109082 40.31056152 -175.11087891 39.51956055 -174.80175781 38.70458984 C-164.04910232 11.46124099 -142.19064492 -9.22662859 -115.5546875 -20.8359375 C-75.59399561 -37.40297435 -32.30991777 -26.61340334 0 0 Z M-90.8359375 235.6640625 C-96.37521902 243.67356416 -96.07597283 250.89733895 -96.1484375 260.3515625 C-96.17744141 261.59357422 -96.20644531 262.83558594 -96.23632812 264.11523438 C-96.29221816 272.22788836 -95.84042109 279.3623887 -90.09570312 285.53344727 C-84.64533027 290.56908375 -79.77905323 292.15918949 -72.39453125 291.97265625 C-65.6798663 291.1627959 -61.33248179 287.67395549 -57.0625 282.640625 C-52.86524027 275.87688799 -53.50367152 268.45035674 -53.5234375 260.7890625 C-53.50732422 259.54769531 -53.49121094 258.30632812 -53.47460938 257.02734375 C-53.47025245 248.84503788 -54.12868579 242.91831519 -58.5859375 235.9140625 C-63.60107011 230.89892989 -68.36564427 229.007911 -75.34375 228.5625 C-81.42700064 228.81040677 -86.5520172 231.3801422 -90.8359375 235.6640625 Z " fill="#000000" transform="translate(330.8359375,70.3359375)"/>
</svg>
