<?xml version="1.0" encoding="UTF-8"?>
<svg version="1.1" xmlns="http://www.w3.org/2000/svg" width="512" height="512">
<path d="M0 0 C2.39632831 -0.0043531 4.79265523 -0.00953823 7.1889801 -0.01548767 C12.9972276 -0.02744419 18.80542124 -0.03003661 24.61367955 -0.02768741 C29.34148078 -0.02589622 34.06926807 -0.02767096 38.79706764 -0.03191185 C39.47284813 -0.03250704 40.14862861 -0.03310223 40.84488729 -0.03371545 C42.21826619 -0.03492735 43.59164508 -0.03614149 44.96502397 -0.03735783 C57.81504021 -0.04820833 70.66503013 -0.04608301 83.51504783 -0.03997298 C95.23237341 -0.03480897 106.94961573 -0.04605009 118.66692486 -0.0650712 C130.73822364 -0.08451457 142.80948316 -0.09269408 154.88079768 -0.08894795 C161.6418242 -0.08704535 168.40277994 -0.08943056 175.16379356 -0.10366249 C181.52755292 -0.11631316 187.89114674 -0.11422865 194.25490379 -0.1012516 C196.57749998 -0.09890178 198.90010808 -0.1015626 201.22269058 -0.10987473 C244.31047067 -0.25284106 282.09874014 14.03185124 313.2277832 44.2746582 C315.70462678 46.83654362 317.98528589 49.50620203 320.2277832 52.2746582 C320.98704102 53.19633789 321.74629883 54.11801758 322.52856445 55.06762695 C337.9533505 74.17685145 348.22948657 96.24698065 353.2277832 120.2746582 C353.40145007 121.09062879 353.57511694 121.90659937 353.75404644 122.74729633 C355.83393852 134.11219391 355.51629363 145.53404235 355.50244141 157.046875 C355.5067945 159.44320331 355.51197964 161.83953023 355.51792908 164.2358551 C355.52988559 170.0441026 355.53247802 175.85229624 355.53012881 181.66055455 C355.52833762 186.38835578 355.53011236 191.11614307 355.53435326 195.84394264 C355.53494845 196.51972313 355.53554363 197.19550361 355.53615686 197.89176229 C355.53736876 199.26514119 355.53858289 200.63852008 355.53979924 202.01189897 C355.55064974 214.86191521 355.54852442 227.71190513 355.54241439 240.56192283 C355.53725038 252.27924841 355.54849149 263.99649073 355.56751261 275.71379986 C355.58695598 287.78509864 355.59513548 299.85635816 355.59138936 311.92767268 C355.58948676 318.6886992 355.59187197 325.44965494 355.6061039 332.21066856 C355.61875456 338.57442792 355.61667006 344.93802174 355.60369301 351.30177879 C355.60134318 353.62437498 355.604004 355.94698308 355.61231613 358.26956558 C355.74474937 398.18283851 343.92517792 433.2771101 317.2277832 463.2746582 C316.16246576 464.56400213 315.0993834 465.85520241 314.0402832 467.1496582 C310.76994674 470.92809779 307.08941331 474.11398406 303.2277832 477.2746582 C301.83946289 478.4193457 301.83946289 478.4193457 300.4230957 479.5871582 C281.31096307 495.00193972 259.25253905 505.27696935 235.2277832 510.2746582 C234.41181262 510.44832507 233.59584204 510.62199194 232.75514507 510.80092144 C221.3902475 512.88081352 209.96839906 512.56316863 198.45556641 512.54931641 C196.0592381 512.5536695 193.66291118 512.55885464 191.2665863 512.56480408 C185.45833881 512.57676059 179.65014517 512.57935302 173.84188686 512.57700381 C169.11408562 512.57521262 164.38629834 512.57698736 159.65849876 512.58122826 C158.98271828 512.58182345 158.3069378 512.58241863 157.61067912 512.58303186 C156.23730022 512.58424376 154.86392133 512.58545789 153.49054243 512.58667424 C140.6405262 512.59752474 127.79053628 512.59539942 114.94051858 512.58928939 C103.22319299 512.58412538 91.50595067 512.59536649 79.78864155 512.61438761 C67.71734277 512.63383098 55.64608324 512.64201048 43.57476872 512.63826436 C36.81374221 512.63636176 30.05278646 512.63874697 23.29177284 512.6529789 C16.92801349 512.66562956 10.56441967 512.66354506 4.20066261 512.65056801 C1.87806643 512.64821818 -0.44454167 512.650879 -2.76712418 512.65919113 C-42.68039711 512.79162437 -77.7746687 500.97205292 -107.7722168 474.2746582 C-109.06156073 473.20934076 -110.352761 472.1462584 -111.6472168 471.0871582 C-115.42565638 467.81682174 -118.61154265 464.13628831 -121.7722168 460.2746582 C-122.9169043 458.88633789 -122.9169043 458.88633789 -124.0847168 457.4699707 C-139.49949831 438.35783807 -149.77452795 416.29941405 -154.7722168 392.2746582 C-154.94588367 391.45868762 -155.11955053 390.64271704 -155.29848003 389.80202007 C-157.37837212 378.4371225 -157.06072722 367.01527406 -157.046875 355.50244141 C-157.0512281 353.1061131 -157.05641323 350.70978618 -157.06236267 348.3134613 C-157.07431919 342.50521381 -157.07691161 336.69702017 -157.07456241 330.88876186 C-157.07277122 326.16096062 -157.07454596 321.43317334 -157.07878685 316.70537376 C-157.07967963 315.69170304 -157.07967963 315.69170304 -157.08059045 314.65755412 C-157.08180235 313.28417522 -157.08301649 311.91079633 -157.08423283 310.53741743 C-157.09508333 297.6874012 -157.09295801 284.83741128 -157.08684798 271.98739358 C-157.08168397 260.27006799 -157.09292509 248.55282567 -157.1119462 236.83551655 C-157.13138957 224.76421777 -157.13956908 212.69295824 -157.13582295 200.62164372 C-157.13392035 193.86061721 -157.13630556 187.09966146 -157.15053749 180.33864784 C-157.16318816 173.97488849 -157.16110365 167.61129467 -157.1481266 161.24753761 C-157.14577678 158.92494143 -157.1484376 156.60233333 -157.15674973 154.27975082 C-157.28440569 115.80627168 -146.43112974 80.56586735 -120.7722168 51.2746582 C-120.09288086 50.47415039 -119.41354492 49.67364258 -118.71362305 48.84887695 C-114.4079308 43.8549454 -109.88633679 39.43205506 -104.7722168 35.2746582 C-103.84924805 34.51411133 -102.9262793 33.75356445 -101.9753418 32.9699707 C-82.86515422 17.54851498 -60.79891651 7.27275142 -36.7722168 2.2746582 C-35.95624621 2.10099133 -35.14027563 1.92732447 -34.29957867 1.74839497 C-22.93468109 -0.33149712 -11.51283265 -0.01385222 0 0 Z M95.65893555 208.63232422 C95.05001465 209.2580835 94.44109375 209.88384277 93.8137207 210.52856445 C93.13438477 211.21885742 92.45504883 211.90915039 91.75512695 212.62036133 C91.04485352 213.3519043 90.33458008 214.08344727 89.6027832 214.8371582 C84.89623791 219.66291243 80.13969862 224.30461478 75.02709961 228.70019531 C72.64585948 230.7838612 70.43453699 233.00826242 68.2277832 235.2746582 C65.33186363 238.20584012 62.42535749 241.03868995 59.2902832 243.7121582 C55.93855676 246.5763608 52.82191495 249.63771391 49.7277832 252.7746582 C45.89003368 256.66044631 41.98502312 260.34556056 37.78637695 263.8371582 C35.98207223 265.38803883 35.98207223 265.38803883 34.2277832 268.2746582 C40.00601656 275.55581589 46.0696155 282.44474373 52.4074707 289.2355957 C55.76809158 292.83964183 59.01910725 296.53496898 62.2277832 300.2746582 C66.15992622 298.68526395 68.55798667 296.11123319 71.4777832 293.0871582 C75.28316531 289.19052297 79.17670855 285.49545135 83.3215332 281.9621582 C86.14470425 279.4629576 88.75164236 276.76127069 91.39575195 274.07543945 C93.54465348 271.96319297 95.81799754 270.08199745 98.2277832 268.2746582 C102.31157661 269.62638667 104.60461839 271.34402062 107.5402832 274.4621582 C110.87546313 277.91234434 114.27465675 281.13076234 117.91918945 284.24731445 C119.79337389 285.89317185 121.62319032 287.56552581 123.44262695 289.27075195 C124.30065918 290.07355591 124.30065918 290.07355591 125.17602539 290.89257812 C126.311575 291.95815212 127.44389461 293.02718169 128.57250977 294.10009766 C131.61043563 296.94526407 134.5388153 299.27618209 138.2277832 301.2746582 C144.69526053 293.76205622 150.95996632 286.15566682 156.9387207 278.24731445 C159.29599241 275.18607935 161.73698875 272.22752584 164.2277832 269.2746582 C162.64143368 265.14820301 159.63564186 262.64220368 156.4152832 259.7746582 C155.23154771 258.70189792 154.04795797 257.62897679 152.86450195 256.5559082 C151.95643799 255.73799805 151.95643799 255.73799805 151.0300293 254.90356445 C148.24157383 252.38330235 145.48554055 249.82840208 142.7277832 247.2746582 C141.64592064 246.27577756 140.5638888 245.27708022 139.48168945 244.27856445 C137.30147709 242.26611114 135.12184619 240.25303063 132.94262695 238.23950195 C126.71860278 232.48961859 120.48797158 226.74726369 114.23168945 221.0324707 C112.10106862 219.08298436 109.98713394 217.11682251 107.88012695 215.1418457 C107.33171143 214.63081299 106.7832959 214.11978027 106.21826172 213.59326172 C105.16162433 212.60816333 104.10856435 211.61921012 103.05957031 210.62597656 C99.63764245 206.99429087 99.63764245 206.99429087 95.65893555 208.63232422 Z " fill="#000000" transform="translate(156.772216796875,-0.274658203125)"/>
</svg>
